<?xml version="1.0" encoding="UTF-8"?>
<svg id="Calque_2" data-name="Calque 2" xmlns="http://www.w3.org/2000/svg" viewBox="0 0 98.65 86.77">
  <defs>
    <style>
      .cls-1 {
        fill: #fde702;
        stroke-width: 0px;
      }
    </style>
  </defs>
  <g id="TEXTE">
    <g>
      <path class="cls-1" d="M38.66,0h1.12c5.2,0,10.4.02,15.6,0,4.17-.02,7.23,1.79,9.3,5.4,10.84,18.87,21.7,37.73,32.53,56.61,1.78,3.1,2,6.36.21,9.54-2.77,4.92-5.62,9.78-8.44,14.67-.06.11-.15.2-.31.4C72,57.75,55.38,28.96,38.66,0Z"/>
      <path class="cls-1" d="M0,66.89c.45,0,.76,0,1.06,0,19.64,0,39.28,0,58.93-.02.77,0,1.19.24,1.58.91,3.43,6.01,6.91,12,10.36,18,.16.27.3.55.54.98h-1.16c-17.91,0-35.82,0-53.73,0-4.17,0-7.22-1.83-9.28-5.44-2.56-4.48-5.17-8.93-7.75-13.4-.17-.3-.32-.6-.54-1.04Z"/>
      <path class="cls-1" d="M30.48,14.01c7.49,12.96,14.88,25.78,22.35,38.71H8.13c7.45-12.9,14.85-25.73,22.35-38.71Z"/>
    </g>
  </g>
</svg>