<?xml version="1.0" encoding="UTF-8"?>
<svg id="Calque_2" data-name="Calque 2" xmlns="http://www.w3.org/2000/svg" viewBox="0 0 95.41 89.06">
  <defs>
    <style>
      .cls-1 {
        fill: #fde702;
        stroke-width: 0px;
      }
    </style>
  </defs>
  <g id="TEXTE">
    <g>
      <path class="cls-1" d="M45.4,80.02c0,6.49-6.55,10.84-12.53,8.31-.86-.36-1.69-.8-2.53-1.21-1.98-.97-3.97-.98-5.98-.11-.89.39-1.77.79-2.67,1.13-3.94,1.5-8.28.16-10.63-3.26-2.52-3.67-2.42-8.23.45-11.36,2.81-3.07,5.7-6.08,8.7-8.96,3.84-3.7,10.13-3.71,13.97.03,3.19,3.11,6.17,6.43,9.16,9.73,1.44,1.58,2.07,3.55,2.06,5.7ZM43.07,80.07c.03-1.65-.47-3.15-1.59-4.36-2.89-3.14-5.75-6.3-8.77-9.32-3.04-3.04-7.95-3.04-11.03-.04-2.87,2.8-5.64,5.69-8.37,8.62-2.21,2.37-2.28,5.77-.34,8.58,1.75,2.54,4.96,3.52,7.9,2.4.93-.36,1.84-.78,2.76-1.17,2.56-1.07,5.09-1,7.6.17.88.41,1.73.88,2.62,1.25,4.4,1.81,9.19-1.38,9.21-6.14Z"/>
      <path class="cls-1" d="M50.54,37.6c.03-2.26.77-4.26,2.31-5.9,2.68-2.84,5.37-5.68,8.14-8.43,4.33-4.3,10.8-4.21,15.05.18,2.74,2.83,5.42,5.72,8.09,8.62,3.12,3.4,3.39,8.17.71,11.71-2.65,3.51-7.27,4.54-11.38,2.55-.58-.28-1.16-.55-1.74-.85-2.07-1.05-4.12-.99-6.26-.13-1.69.67-3.44,1.49-5.21,1.63-5.35.45-9.77-3.95-9.71-9.38ZM52.88,37.73c0,5,4.82,8.28,9.46,6.44.84-.33,1.66-.7,2.5-1.05,2.59-1.1,5.15-1.04,7.69.16.76.36,1.5.75,2.27,1.09,2.98,1.35,6.34.51,8.24-2.05,1.91-2.58,1.78-6.04-.43-8.47-2.74-3.01-5.51-5.99-8.36-8.91-3.25-3.33-8.25-3.36-11.54-.07-2.74,2.74-5.41,5.55-8.09,8.36-1.19,1.24-1.74,2.77-1.73,4.5Z"/>
      <path class="cls-1" d="M25.8,50.94c-.08,2.58-.77,4.91-2.63,6.78-2.31,2.31-5.53,2.31-7.87.03-3.54-3.43-3.52-10.3.04-13.71,2.31-2.22,5.52-2.21,7.8.05,1.9,1.88,2.6,4.25,2.66,6.86ZM23.46,50.97c-.04-1.86-.47-3.56-1.7-4.96-1.53-1.74-3.57-1.72-5.11,0-2.24,2.52-2.22,7.35.04,9.85,1.5,1.65,3.46,1.69,4.97.06,1.3-1.4,1.73-3.13,1.79-4.95Z"/>
      <path class="cls-1" d="M67.06,9.27c-.08,2.31-.67,4.46-2.18,6.27-2.44,2.91-6.24,2.94-8.74.08-2.93-3.35-2.99-9.24-.14-12.65,2.61-3.12,6.64-3.03,9.11.22,1.36,1.79,1.89,3.86,1.95,6.08ZM56.21,9.24c.07,1.86.51,3.59,1.8,4.99,1.48,1.6,3.43,1.59,4.91,0,2.35-2.49,2.36-7.49.03-9.99-1.52-1.63-3.47-1.65-4.97,0-1.29,1.41-1.71,3.14-1.77,4.99Z"/>
      <path class="cls-1" d="M83.05,8.53c-.05,2.58-.72,4.79-2.41,6.61-2.42,2.6-5.95,2.57-8.35-.04-3.11-3.38-3.15-9.6-.08-13.02,2.47-2.76,6.07-2.78,8.54-.02,1.68,1.87,2.3,4.14,2.3,6.47ZM80.72,8.52c0-1.66-.39-3.2-1.39-4.55-1.62-2.18-4.02-2.17-5.66-.01-1.9,2.51-1.86,6.78.08,9.25,1.58,2.01,3.91,2.02,5.48,0,1.08-1.38,1.49-2.98,1.49-4.71Z"/>
      <path class="cls-1" d="M28.67,50.23c.04-2.43.69-4.65,2.33-6.5,2.35-2.65,5.89-2.7,8.35-.15,3.24,3.37,3.28,9.82.07,13.23-2.52,2.68-6.16,2.59-8.54-.21-1.55-1.83-2.17-4-2.21-6.37ZM31,50.3c.04,1.75.48,3.41,1.66,4.8,1.49,1.74,3.56,1.76,5.11.06,2.26-2.48,2.27-7.34.02-9.84-1.56-1.74-3.67-1.72-5.17.08-1.17,1.4-1.6,3.06-1.62,4.9Z"/>
      <path class="cls-1" d="M95.41,17.29c-.15,3.1-1.02,5.54-3.04,7.47-1.55,1.49-3.37,2.34-5.55,1.71-2.19-.63-3.33-2.31-3.73-4.42-.74-3.9.36-7.26,3.5-9.75,3.22-2.54,7.15-1.25,8.37,2.67.26.85.35,1.76.45,2.32ZM93.08,17.47c-.05-.33-.09-.82-.19-1.29-.62-2.92-3.05-3.77-5.23-1.76-2.12,1.97-2.91,4.48-2.25,7.3.64,2.75,3.02,3.44,5.14,1.56,1.69-1.5,2.4-3.46,2.53-5.82Z"/>
      <path class="cls-1" d="M12.83,62.2c-.32,1.17-.5,2.4-1,3.49-1.2,2.62-3.96,3.57-6.6,2.42-4.2-1.84-6.48-7.87-4.55-12.02,1.29-2.77,4.1-3.79,6.88-2.5,2.94,1.37,5.04,4.93,5.26,8.61ZM10.32,62.18c-.11-2.46-.99-4.62-3.1-6.1-2.07-1.46-4.15-.64-4.71,1.82-.57,2.48.16,4.66,1.72,6.58,1.19,1.46,2.84,2.12,4.05,1.61,1.7-.72,1.95-2.25,2.04-3.9Z"/>
      <path class="cls-1" d="M41.17,17.29c.22-.77.4-2,.9-3.09,1.21-2.61,3.98-3.55,6.61-2.39,4.15,1.83,6.43,7.82,4.56,11.95-1.29,2.86-4.25,3.96-7.02,2.49-3.39-1.79-4.72-4.85-5.05-8.97ZM43.59,18.21c.11,1.95.96,4.12,3.06,5.61,2.08,1.47,4.14.69,4.72-1.78.59-2.51-.13-4.74-1.76-6.65-1.02-1.2-2.28-2.07-3.98-1.56-1.28.38-2.04,1.89-2.04,4.39Z"/>
      <path class="cls-1" d="M41.61,61.72c.07-2.55.86-4.8,2.56-6.66,1.61-1.77,3.56-2.88,6.03-2.14,2.47.74,3.53,2.74,3.83,5.11.41,3.22-.54,6.09-2.86,8.39-1.63,1.61-3.58,2.49-5.9,1.63-2.33-.86-3.23-2.82-3.58-5.11-.06-.41-.05-.84-.07-1.22ZM51.81,59.28c-.05-.4-.06-.92-.17-1.41-.69-3.01-3.17-3.78-5.38-1.61-2.06,2.03-2.79,4.55-2.05,7.36.66,2.49,2.84,3.16,4.86,1.54,1.83-1.47,2.59-3.47,2.74-5.88Z"/>
    </g>
  </g>
</svg>