<?xml version="1.0" encoding="UTF-8"?>
<svg id="Calque_2" data-name="Calque 2" xmlns="http://www.w3.org/2000/svg" viewBox="0 0 97.02 97.31">
  <defs>
    <style>
      .cls-1 {
        fill: #89354a;
        stroke-width: 0px;
      }
    </style>
  </defs>
  <g id="TEXTE">
    <g>
      <path class="cls-1" d="M48.52,97.31c-7.18-.18-14.37-.21-21.54-.57-7.39-.37-14.06-2.66-19.33-8.19-3.99-4.19-6.19-9.24-6.89-14.89-.49-3.98-.72-8.01-.74-12.02-.05-10.41.04-20.82.15-31.23.05-4.37.5-8.71,2.03-12.87C5.41,8.82,11.66,3.52,20.62,1.28,25.58.04,30.66.04,35.72.02c10.19-.05,20.38.04,30.57.15,4.63.05,9.23.48,13.61,2.15,8.58,3.28,13.8,9.51,15.98,18.37.86,3.52,1.11,7.12,1.12,10.73.03,11.17.04,22.34,0,33.51-.02,4.85-.31,9.69-1.96,14.31-3.29,9.2-9.87,14.69-19.33,16.78-5.29,1.17-10.69,1.01-16.07,1.12-3.7.07-7.4.01-11.11.01v.17ZM48.51,88.57s0-.1,0-.15c2.56,0,5.13.08,7.69-.02,5.53-.2,11.1-.13,16.57-.82,7.48-.93,12.54-5.23,14.38-12.67.74-2.98,1-6.13,1.05-9.2.17-9.84.2-19.68.15-29.52-.02-3.88-.21-7.79-.7-11.64-.98-7.86-5.85-13.17-13.58-14.72-3.29-.66-6.72-.86-10.09-.92-8.57-.14-17.15-.11-25.73-.09-4.84.01-9.69-.04-14.48.8-7.37,1.3-12.42,5.97-13.92,13.32-.65,3.17-.86,6.46-.93,9.7-.17,7.81-.23,15.63-.14,23.44.06,5.47.21,10.95.73,16.39.52,5.34,3.03,9.75,7.72,12.66,3.17,1.97,6.73,2.75,10.4,2.88,6.96.25,13.92.37,20.87.54Z"/>
      <path class="cls-1" d="M23.58,48.57c0-13.77,11.24-25,25.01-24.97,13.82.03,25.01,11.24,24.95,25.01-.06,13.79-11.19,24.92-24.95,24.93-13.77.02-25-11.2-25.01-24.98ZM48.49,64.74c8.97.03,16.2-7.13,16.25-16.08.05-9-7.16-16.26-16.16-16.27-8.96-.01-16.17,7.17-16.2,16.13-.03,8.96,7.16,16.19,16.11,16.22Z"/>
      <path class="cls-1" d="M80.34,22.58c.01,3.25-2.57,5.85-5.81,5.85-3.18,0-5.8-2.58-5.83-5.75-.03-3.25,2.53-5.86,5.78-5.89,3.26-.02,5.85,2.53,5.86,5.79Z"/>
    </g>
  </g>
</svg>