<?xml version="1.0" encoding="UTF-8"?>
<svg id="Calque_2" data-name="Calque 2" xmlns="http://www.w3.org/2000/svg" viewBox="0 0 97.31 97.31">
  <defs>
    <style>
      .cls-1 {
        fill: #fde702;
        stroke-width: 0px;
      }
    </style>
  </defs>
  <g id="TEXTE">
    <path class="cls-1" d="M48.66,0c11.75,0,23.5,0,35.24,0,6.45,0,11.74,4.26,13.1,10.53.21.95.29,1.95.29,2.92.02,23.47.02,46.93,0,70.4,0,7.6-5.83,13.44-13.41,13.45-23.5.01-46.99.01-70.49,0-7.57,0-13.4-5.86-13.4-13.45C0,60.38,0,36.92,0,13.45,0,5.82,5.85.01,13.51,0c11.72,0,23.43,0,35.15,0ZM51.83,43.29c0-1.06,0-1.81,0-2.57-.01-1.72-.65-2.37-2.34-2.38-2.76,0-5.51,0-8.27,0-1.6,0-2.26.66-2.26,2.25,0,12.07,0,24.13,0,36.2,0,1.57.69,2.26,2.26,2.27,2.63,0,5.26,0,7.89,0,2.13,0,2.68-.55,2.68-2.71,0-6.08-.01-12.16,0-18.24,0-2.32.51-4.53,1.8-6.5,1.57-2.39,3.87-3.13,6.6-2.76,2.5.34,4.17,1.81,4.75,4.18.49,2,.7,4.11.74,6.18.09,5.86.02,11.72.03,17.58,0,1.59.68,2.25,2.26,2.25,2.85,0,5.7,0,8.55,0,1.67,0,2.34-.69,2.34-2.38,0-6.62.08-13.24-.06-19.86-.06-2.8-.35-5.64-.94-8.37-1.09-5.04-3.9-8.76-9.13-10.14-3.05-.8-6.14-.78-9.22-.15-2.94.6-5.34,2.07-7.14,4.49-.11.14-.23.28-.53.65ZM20.34,58.68c0,5.98,0,11.96,0,17.95,0,1.67.76,2.42,2.45,2.43,2.63,0,5.25,0,7.88,0,1.75,0,2.51-.73,2.51-2.47,0-11.93,0-23.87,0-35.8,0-1.75-.74-2.46-2.5-2.47-2.56-.01-5.13,0-7.69,0-1.99,0-2.64.68-2.64,2.71,0,5.89,0,11.77,0,17.66ZM35.02,26.58c.04-4.52-3.6-8.27-8.11-8.33-4.62-.06-8.41,3.61-8.46,8.19-.04,4.57,3.63,8.33,8.18,8.36,4.66.04,8.34-3.58,8.39-8.23Z"/>
  </g>
</svg>