<?xml version="1.0" encoding="UTF-8"?>
<svg id="Calque_2" data-name="Calque 2" xmlns="http://www.w3.org/2000/svg" viewBox="0 0 97.83 82.43">
  <defs>
    <style>
      .cls-1 {
        fill: #89354a;
        stroke-width: 0px;
      }
    </style>
  </defs>
  <g id="TEXTE">
    <g>
      <path class="cls-1" d="M58.04,62.89c.79-1.69,2.48-2.59,4.28-2.14,2.03.56,3.16,2.48,2.59,4.4l-3.83,14.54c-.45,1.69-1.92,2.7-3.49,2.7H4.51c-2.71,0-4.51-1.8-4.51-3.95,0-4.4,4.51-2.82,4.51-17.02V20.96C4.51,6.76,0,8.34,0,3.95,0,1.8,1.8,0,4.51,0h21.87c2.7,0,4.51,1.8,4.51,3.95,0,4.4-4.51,2.82-4.51,17.02v54.21h16.68c9.35,0,12.4-6.09,14.99-12.28Z"/>
      <path class="cls-1" d="M39.78,19.54c-.79,1.69-2.48,2.59-4.28,2.14-2.03-.56-3.16-2.48-2.59-4.4l3.83-14.54c.45-1.69,1.92-2.7,3.49-2.7h53.08c2.71,0,4.51,1.8,4.51,3.95,0,4.4-4.51,2.82-4.51,17.02v40.46c0,14.2,4.51,12.62,4.51,17.02,0,2.14-1.8,3.95-4.51,3.95h-21.87c-2.7,0-4.51-1.8-4.51-3.95,0-4.4,4.51-2.82,4.51-17.02V7.25h-16.68c-9.35,0-12.4,6.09-14.99,12.28Z"/>
    </g>
    <g>
      <path class="cls-1" d="M48.91,40.47c1.25.03,2.35.44,3.26,1.33,1.37,1.33,2.73,2.66,4.08,4.01.99.99,1.27,2.2.87,3.54-.4,1.34-1.26,2.22-2.62,2.49-.63.13-1.25-.02-1.87-.17-.85-.2-1.68-.44-2.54-.6-1.25-.23-2.47-.02-3.68.33-.73.21-1.49.38-2.25.46-1.44.15-2.7-.67-3.31-2.07-.61-1.41-.36-2.93.69-3.97,1.37-1.36,2.74-2.7,4.12-4.04.91-.88,2.01-1.29,3.24-1.32Z"/>
      <path class="cls-1" d="M48.15,34.61c-.03,1.15-.29,2.2-.99,3.08-1.04,1.32-2.63,1.32-3.66,0-.79-1.01-1.05-2.2-.97-3.47.05-.77.22-1.52.6-2.2.38-.69.91-1.23,1.68-1.41,1.01-.24,1.81.16,2.43.97.68.89.87,1.95.91,3.03Z"/>
      <path class="cls-1" d="M55.3,34.76c-.02.86-.23,1.79-.77,2.63-1.1,1.71-3,1.72-4.09,0-.73-1.15-.9-2.42-.69-3.76.12-.74.35-1.44.8-2.04,1.05-1.41,2.8-1.42,3.85,0,.55.74.9,1.91.89,3.17Z"/>
      <path class="cls-1" d="M41.92,40.31c-.01.57-.09,1.13-.32,1.65-.61,1.43-2.09,1.74-3.18.65-.74-.73-1.1-1.66-1.28-2.68-.15-.87-.14-1.74.2-2.57.57-1.37,1.96-1.73,3.05-.76.88.78,1.3,1.81,1.45,2.98.03.24.04.49.06.74Z"/>
      <path class="cls-1" d="M55.91,40.11c.02-1.03.34-2.18,1.14-3.15.17-.2.36-.38.57-.53.97-.7,2.09-.44,2.69.63.33.59.46,1.23.46,1.9,0,1.17-.31,2.25-.98,3.2-.39.55-.9.95-1.57,1.05-.87.13-1.61-.35-2.01-1.25-.23-.52-.31-1.06-.3-1.85Z"/>
    </g>
  </g>
</svg>