<?xml version="1.0" encoding="UTF-8"?>
<svg id="Calque_2" data-name="Calque 2" xmlns="http://www.w3.org/2000/svg" viewBox="0 0 97.61 87.87">
  <defs>
    <style>
      .cls-1 {
        fill: #ffeded;
        stroke-width: 0px;
      }
    </style>
  </defs>
  <g id="TETE">
    <g>
      <path class="cls-1" d="M48.78,47c5.15-.12,9.67-1.82,13.42-5.46,5.63-5.46,11.24-10.95,16.8-16.49,4.09-4.06,5.22-9.05,3.58-14.58-1.64-5.52-5.2-9.12-10.79-10.27-2.61-.54-5.16.09-7.69.68-3.48.82-6.93,1.81-10.44,2.45-5.14.94-10.16.1-15.15-1.34-3.02-.87-6.13-1.58-9.24-1.91-5.94-.63-11.13,2.76-13.63,8.5-2.52,5.78-1.47,12.07,2.84,16.35,5.62,5.58,11.27,11.13,16.96,16.63,3.75,3.63,8.29,5.31,13.35,5.42Z"/>
      <path class="cls-1" d="M45.68,71.13c-.11-4.74-1.18-9.04-4.05-12.69-4.26-5.42-10.81-5.45-15.06-.02-3.26,4.16-4.34,9.04-3.99,14.3.21,3.18.92,6.25,2.47,9.05,1.57,2.85,3.73,5.05,6.9,5.81,4.14.99,7.44-.65,9.99-3.98,2.8-3.67,3.59-8.03,3.75-12.47Z"/>
      <path class="cls-1" d="M75.09,70.48c-.09-3.55-.96-7.39-3.17-10.82-4.51-7.03-12.34-7.06-16.83-.02-3.01,4.73-3.7,9.96-2.83,15.46.48,3.05,1.44,5.91,3.28,8.39,4.32,5.82,11.51,5.83,15.86.02,2.28-3.05,3.7-7.86,3.67-13.03Z"/>
      <path class="cls-1" d="M20.02,47.67c-.06-2.35-.38-4.64-1.3-6.8-2.51-5.88-8.58-7.14-13.07-2.68-3.03,3.01-4.52,6.85-5.26,11.04-.64,3.6-.59,7.16.82,10.59,2.33,5.65,8.06,7.11,12.57,3.13,3.62-3.2,5.34-7.46,5.98-12.25.14-1,.18-2.02.26-3.03Z"/>
      <path class="cls-1" d="M77.62,48.47c.08,4.25,1.39,8.98,4.7,12.96.68.82,1.48,1.57,2.33,2.18,4.01,2.88,8.61,1.79,11.08-2.59,1.36-2.42,1.89-5.07,1.88-7.84-.03-4.82-1.26-9.27-4.03-13.17-1.61-2.26-3.68-3.92-6.45-4.32-3.57-.52-6.64,1.44-8.27,5.16-.93,2.12-1.26,4.37-1.23,7.61Z"/>
    </g>
  </g>
</svg>